<?xml version="1.0" encoding="UTF-8"?>
<svg xmlns="http://www.w3.org/2000/svg" width="832" height="1000" viewBox="0 0 832 1000">
<rect width="100%" height="100%" fill="#12161c"/>
<g transform="translate(0 0)">
<rect x="24" y="24" width="380" height="220" rx="6" fill="#1b2129"/>
<text x="40" y="48" fill="#ebeef5" font-family="Arial" font-size="15">Mean return</text>
<line x1="66" y1="202" x2="386" y2="202" stroke="#6d7684" stroke-width="1"/>
<line x1="66" y1="62" x2="66" y2="202" stroke="#6d7684" stroke-width="1"/>
<text x="66" y="224" fill="#aeb7c4" font-family="Arial" font-size="11">step 512</text>
<text x="328" y="224" fill="#aeb7c4" font-family="Arial" font-size="11">step 4096</text>
<text x="34" y="66" fill="#aeb7c4" font-family="Arial" font-size="11">-0.873</text>
<text x="34" y="202" fill="#aeb7c4" font-family="Arial" font-size="11">-1.2</text>
<polyline points="66.0,202.0 111.7,201.0 157.4,200.9 203.1,201.3 248.9,201.2 294.6,201.2 340.3,201.1 386.0,62.0" fill="none" stroke="#5aa5ff" stroke-width="2.5"/>
</g>
<g transform="translate(0 0)">
<rect x="428" y="24" width="380" height="220" rx="6" fill="#1b2129"/>
<text x="444" y="48" fill="#ebeef5" font-family="Arial" font-size="15">Success rate</text>
<line x1="470" y1="202" x2="790" y2="202" stroke="#6d7684" stroke-width="1"/>
<line x1="470" y1="62" x2="470" y2="202" stroke="#6d7684" stroke-width="1"/>
<text x="470" y="224" fill="#aeb7c4" font-family="Arial" font-size="11">step 512</text>
<text x="732" y="224" fill="#aeb7c4" font-family="Arial" font-size="11">step 4096</text>
<text x="438" y="66" fill="#aeb7c4" font-family="Arial" font-size="11">0.0312</text>
<text x="438" y="202" fill="#aeb7c4" font-family="Arial" font-size="11">0</text>
<polyline points="470.0,202.0 515.7,202.0 561.4,202.0 607.1,202.0 652.9,202.0 698.6,202.0 744.3,202.0 790.0,62.0" fill="none" stroke="#5aa5ff" stroke-width="2.5"/>
</g>
<g transform="translate(0 0)">
<rect x="24" y="268" width="380" height="220" rx="6" fill="#1b2129"/>
<text x="40" y="292" fill="#ebeef5" font-family="Arial" font-size="15">Entropy</text>
<line x1="66" y1="446" x2="386" y2="446" stroke="#6d7684" stroke-width="1"/>
<line x1="66" y1="306" x2="66" y2="446" stroke="#6d7684" stroke-width="1"/>
<text x="66" y="468" fill="#aeb7c4" font-family="Arial" font-size="11">step 512</text>
<text x="328" y="468" fill="#aeb7c4" font-family="Arial" font-size="11">step 4096</text>
<text x="34" y="310" fill="#aeb7c4" font-family="Arial" font-size="11">4.15</text>
<text x="34" y="446" fill="#aeb7c4" font-family="Arial" font-size="11">4.15</text>
<polyline points="66.0,310.2 111.7,306.0 157.4,320.4 203.1,345.5 248.9,330.9 294.6,354.5 340.3,432.3 386.0,446.0" fill="none" stroke="#5aa5ff" stroke-width="2.5"/>
</g>
<g transform="translate(0 0)">
<rect x="428" y="268" width="380" height="220" rx="6" fill="#1b2129"/>
<text x="444" y="292" fill="#ebeef5" font-family="Arial" font-size="15">Value loss</text>
<line x1="470" y1="446" x2="790" y2="446" stroke="#6d7684" stroke-width="1"/>
<line x1="470" y1="306" x2="470" y2="446" stroke="#6d7684" stroke-width="1"/>
<text x="470" y="468" fill="#aeb7c4" font-family="Arial" font-size="11">step 512</text>
<text x="732" y="468" fill="#aeb7c4" font-family="Arial" font-size="11">step 4096</text>
<text x="438" y="310" fill="#aeb7c4" font-family="Arial" font-size="11">1.21</text>
<text x="438" y="446" fill="#aeb7c4" font-family="Arial" font-size="11">0.0618</text>
<polyline points="470.0,440.2 515.7,443.2 561.4,444.0 607.1,436.2 652.9,446.0 698.6,443.6 744.3,443.3 790.0,306.0" fill="none" stroke="#5aa5ff" stroke-width="2.5"/>
</g>
<g transform="translate(0 0)">
<rect x="24" y="512" width="380" height="220" rx="6" fill="#1b2129"/>
<text x="40" y="536" fill="#ebeef5" font-family="Arial" font-size="15">Policy loss</text>
<line x1="66" y1="690" x2="386" y2="690" stroke="#6d7684" stroke-width="1"/>
<line x1="66" y1="550" x2="66" y2="690" stroke="#6d7684" stroke-width="1"/>
<text x="66" y="712" fill="#aeb7c4" font-family="Arial" font-size="11">step 512</text>
<text x="328" y="712" fill="#aeb7c4" font-family="Arial" font-size="11">step 4096</text>
<text x="34" y="554" fill="#aeb7c4" font-family="Arial" font-size="11">2.63e-05</text>
<text x="34" y="690" fill="#aeb7c4" font-family="Arial" font-size="11">-0.000941</text>
<polyline points="66.0,687.8 111.7,594.6 157.4,550.3 203.1,571.1 248.9,690.0 294.6,550.0 340.3,561.9 386.0,619.6" fill="none" stroke="#5aa5ff" stroke-width="2.5"/>
</g>
<g transform="translate(0 0)">
<rect x="428" y="512" width="380" height="220" rx="6" fill="#1b2129"/>
<text x="444" y="536" fill="#ebeef5" font-family="Arial" font-size="15">Approx KL</text>
<line x1="470" y1="690" x2="790" y2="690" stroke="#6d7684" stroke-width="1"/>
<line x1="470" y1="550" x2="470" y2="690" stroke="#6d7684" stroke-width="1"/>
<text x="470" y="712" fill="#aeb7c4" font-family="Arial" font-size="11">step 512</text>
<text x="732" y="712" fill="#aeb7c4" font-family="Arial" font-size="11">step 4096</text>
<text x="438" y="554" fill="#aeb7c4" font-family="Arial" font-size="11">0.0012</text>
<text x="438" y="690" fill="#aeb7c4" font-family="Arial" font-size="11">-0.000248</text>
<polyline points="470.0,550.0 515.7,620.6 561.4,686.8 607.1,609.7 652.9,631.4 698.6,676.1 744.3,667.3 790.0,690.0" fill="none" stroke="#5aa5ff" stroke-width="2.5"/>
</g>
<g transform="translate(0 0)">
<rect x="24" y="756" width="380" height="220" rx="6" fill="#1b2129"/>
<text x="40" y="780" fill="#ebeef5" font-family="Arial" font-size="15">Clip fraction</text>
<line x1="66" y1="934" x2="386" y2="934" stroke="#6d7684" stroke-width="1"/>
<line x1="66" y1="794" x2="66" y2="934" stroke="#6d7684" stroke-width="1"/>
<text x="66" y="956" fill="#aeb7c4" font-family="Arial" font-size="11">step 512</text>
<text x="328" y="956" fill="#aeb7c4" font-family="Arial" font-size="11">step 4096</text>
<text x="34" y="798" fill="#aeb7c4" font-family="Arial" font-size="11">1</text>
<text x="34" y="934" fill="#aeb7c4" font-family="Arial" font-size="11">-1</text>
<polyline points="66.0,864.0 111.7,864.0 157.4,864.0 203.1,864.0 248.9,864.0 294.6,864.0 340.3,864.0 386.0,864.0" fill="none" stroke="#5aa5ff" stroke-width="2.5"/>
</g>
</svg>
